<svg xmlns="http://www.w3.org/2000/svg" xmlns:xlink="http://www.w3.org/1999/xlink" width="132.929" height="94.853" viewBox="0 0 132.929 94.853"><defs><style>.a,.d,.l{fill:#efa707;}.a,.g{opacity:0.1;}.b,.e,.k,.l{opacity:0.5;}.c{fill:none;stroke:#535461;stroke-miterlimit:10;stroke-width:2px;}.e,.i{fill:#fff;}.f{fill:#474059;}.h{fill:url(#a);}.j,.k{fill:#c0bccf;}.m{fill:url(#b);}.n{fill:#493545;}.o{fill:#c77485;}.p{fill:#444176;}.q{fill:url(#c);}.r{fill:#f1d2d7;}.s{fill:url(#d);}.t{fill:url(#e);}.u{fill:#fdc2cc;}.v{fill:#865a61;}.w{fill:#53526b;}.x{fill:#555388;}</style><linearGradient id="a" x1="0.5" y1="1" x2="0.5" gradientUnits="objectBoundingBox"><stop offset="0" stop-color="gray" stop-opacity="0.251"/><stop offset="0.54" stop-color="gray" stop-opacity="0.122"/><stop offset="1" stop-color="gray" stop-opacity="0.102"/></linearGradient><linearGradient id="b" y1="1" y2="0" xlink:href="#a"/><linearGradient id="c" x1="0" y1="0.5" x2="1" y2="0.5" xlink:href="#a"/><linearGradient id="d" y1="1" y2="0" xlink:href="#a"/><linearGradient id="e" x1="-25.357" y1="1.001" x2="-25.357" y2="0" xlink:href="#a"/></defs><g transform="translate(0 0.006)"><path class="a" d="M168.183,78.554c-4.673,6.413-3.131,15.566-.43,22.859.9,2.441,1.933,5.023,1.464,7.679-.573,3.247-3.266,5.68-6.065,7a16.072,16.072,0,0,1-15.7-1.013c-3.939-2.626-6.712-6.99-10.728-9.491-6.721-4.184-15.446-2.315-22.926.88-5.292,2.26-11.089,5.17-16.245,3.083-3.629-1.468-6.072-5.206-7.358-9.2-.621-1.929-1.055-4.023-2.292-5.533A8.461,8.461,0,0,0,85.2,92.775C76.081,88,64.352,90.984,55.511,85.657c-5.969-3.6-9.684-10.58-11.227-17.92s-1.161-15.089-.547-22.7c.437-5.412,1.128-11.2,4.382-15.449A15.5,15.5,0,0,1,62.487,24c5.158.7,9.783,3.569,13.828,6.989,5.06,4.266,9.716,9.623,16.009,11.243,4.287,1.1,8.841.322,13.3-.023,7.449-.575,14.871.087,22.249.836,7.062.716,14.173,1.516,20.862,3.864,4.733,1.662,8.485,4.8,12.941,6.949,2.9,1.4,6.1,1.724,8.834,3.531,3.373,2.226,6.422,6.17,5.433,10.9C175,72.794,170.666,75.151,168.183,78.554Z" transform="translate(-43.2 -23.86)"/><g class="b" transform="translate(94.277 42.707)"><path class="c" d="M898.19,477.838s.394-11.67,6.708-18.264a17.69,17.69,0,0,0,4.851-10.085,29.765,29.765,0,0,0,.148-5.44" transform="translate(-890.405 -436.603)"/><path class="d" d="M993.84,384.936c-.432,1.3-4.044,4.3-4.044,4.3s-1.107-4.561-.674-5.864a2.486,2.486,0,0,1,4.719,1.565Z" transform="translate(-970.393 -381.666)"/><path class="d" d="M999.73,447.252c-1.074.859-5.73,1.411-5.73,1.411s1.552-4.43,2.626-5.288a2.485,2.485,0,1,1,3.1,3.877Z" transform="translate(-974.777 -435.47)"/><path class="d" d="M964.57,546.754c-1.358.2-5.659-1.671-5.659-1.671s3.574-3.042,4.933-3.242a2.486,2.486,0,1,1,.727,4.918Z" transform="translate(-943.876 -522.696)"/><path class="d" d="M918.551,619.172c-1.3.427-5.861-.695-5.861-.695s3.009-3.6,4.314-4.029a2.486,2.486,0,0,1,1.552,4.724Z" transform="translate(-903.174 -586.551)"/><path class="d" d="M949.752,453.72c.634,1.218,4.681,3.6,4.681,3.6s.368-4.678-.266-5.9a2.485,2.485,0,0,0-4.41,2.294Z" transform="translate(-935.568 -441.918)"/><path class="d" d="M895.434,533.8c.969.973,5.539,2.038,5.539,2.038s-1.049-4.574-2.017-5.547a2.485,2.485,0,0,0-3.521,3.508Z" transform="translate(-887.339 -511.9)"/><path class="d" d="M858.8,624.682c.79,1.122,5.115,2.945,5.115,2.945s-.26-4.685-1.052-5.809a2.485,2.485,0,1,0-4.059,2.865Z" transform="translate(-855.279 -592.165)"/><path class="c" d="M867.241,550.319s-3.581-5.209-2.953-10.111a9.578,9.578,0,0,0-1.132-5.952,16.122,16.122,0,0,0-1.686-2.416" transform="translate(-858.068 -513.913)"/><path class="d" d="M845.275,499.1a10.681,10.681,0,0,1-.378,3.173s-1.949-1.631-2.18-2.336a1.346,1.346,0,1,1,2.558-.836Z" transform="translate(-841.494 -484.267)"/><path class="d" d="M873.645,520.458a10.7,10.7,0,0,1-2.042,2.458,10.681,10.681,0,0,1-.56-3.147,1.346,1.346,0,1,1,2.6.689Z" transform="translate(-866.471 -502.401)"/><path class="d" d="M888.453,572.231a10.671,10.671,0,0,1-3,1.091,10.641,10.641,0,0,1,1.105-3,1.346,1.346,0,0,1,1.9,1.91Z" transform="translate(-879.185 -547.458)"/><path class="d" d="M893.781,619.063a10.68,10.68,0,0,1-2.781,1.58,10.652,10.652,0,0,1,.583-3.142,1.346,1.346,0,1,1,2.194,1.559Z" transform="translate(-884.073 -588.851)"/><path class="d" d="M848.272,543.157a10.643,10.643,0,0,0,3.194.065,10.659,10.659,0,0,0-2.013-2.482,1.345,1.345,0,1,0-1.182,2.417Z" transform="translate(-845.781 -521.63)"/><path class="d" d="M850.394,595.542a10.647,10.647,0,0,0,3.068-.894,10.567,10.567,0,0,0-2.663-1.762,1.346,1.346,0,1,0-.4,2.661Z" transform="translate(-847.307 -567.658)"/><path class="d" d="M863.969,647a10.555,10.555,0,0,0,3.175-.358s-1.621-1.957-2.327-2.192a1.346,1.346,0,1,0-.849,2.555Z" transform="translate(-859.456 -613.021)"/><path class="e" d="M845.275,499.1a10.681,10.681,0,0,1-.378,3.173s-1.949-1.631-2.18-2.336a1.346,1.346,0,1,1,2.558-.836Z" transform="translate(-841.494 -484.267)"/><path class="e" d="M873.645,520.458a10.7,10.7,0,0,1-2.042,2.458,10.681,10.681,0,0,1-.56-3.147,1.346,1.346,0,1,1,2.6.689Z" transform="translate(-866.471 -502.401)"/><path class="e" d="M888.453,572.231a10.671,10.671,0,0,1-3,1.091,10.641,10.641,0,0,1,1.105-3,1.346,1.346,0,0,1,1.9,1.91Z" transform="translate(-879.185 -547.458)"/><path class="e" d="M893.781,619.063a10.68,10.68,0,0,1-2.781,1.58,10.652,10.652,0,0,1,.583-3.142,1.346,1.346,0,1,1,2.194,1.559Z" transform="translate(-884.073 -588.851)"/><path class="e" d="M848.272,543.157a10.643,10.643,0,0,0,3.194.065,10.659,10.659,0,0,0-2.013-2.482,1.345,1.345,0,1,0-1.182,2.417Z" transform="translate(-845.781 -521.63)"/><path class="e" d="M850.394,595.542a10.647,10.647,0,0,0,3.068-.894,10.567,10.567,0,0,0-2.663-1.762,1.346,1.346,0,1,0-.4,2.661Z" transform="translate(-847.307 -567.658)"/><path class="e" d="M863.969,647a10.555,10.555,0,0,0,3.175-.358s-1.621-1.957-2.327-2.192a1.346,1.346,0,1,0-.849,2.555Z" transform="translate(-859.456 -613.021)"/><path class="f" d="M792.316,666.514H802.5l2.547-15.534H789.77Z" transform="translate(-789.77 -615.983)"/><path class="g" d="M791.719,650.98,794.1,665.5h8.571l-.167,1.018H792.316L789.77,650.98Z" transform="translate(-789.77 -615.983)"/></g><rect class="h" width="74.727" height="90.162" transform="translate(24.027 4.685)"/><rect class="i" width="72.817" height="87.858" transform="translate(24.982 5.838)"/><rect class="j" width="29.366" height="1.432" transform="translate(53.274 15.746)"/><rect class="j" width="29.366" height="1.432" transform="translate(53.274 20.282)"/><rect class="d" width="15.28" height="1.432" transform="translate(60.317 24.818)"/><rect class="k" width="29.366" height="1.432" transform="translate(53.274 44.515)"/><rect class="k" width="29.366" height="1.432" transform="translate(53.274 49.051)"/><rect class="l" width="15.28" height="1.432" transform="translate(60.317 53.587)"/><rect class="k" width="29.366" height="1.432" transform="translate(53.274 73.284)"/><rect class="k" width="29.366" height="1.432" transform="translate(53.274 77.82)"/><rect class="l" width="15.28" height="1.432" transform="translate(60.317 82.356)"/><g class="b" transform="translate(28.922 41.649)"><path class="j" d="M301.715,380.916a8.079,8.079,0,0,1-1.954,5.282c-.062.073-.126.144-.192.215q-.049.055-.1.107a7.963,7.963,0,0,1-.867.787l-.022.016a7.932,7.932,0,0,1-1.54.945h0a8.016,8.016,0,0,1-.864.346l-.109.035c-.067.023-.136.043-.2.062l-.027.008a8.157,8.157,0,0,1-4.482,0h-.012c-.119-.035-.239-.07-.349-.11l-.1-.036a7.867,7.867,0,0,1-1.122-.5l-.023-.012a8.149,8.149,0,0,1-1.59-1.126l-.039-.037a7.587,7.587,0,0,1-.694-.716c-.029-.032-.056-.066-.084-.1-.053-.062-.1-.127-.153-.191a8.117,8.117,0,1,1,14.528-4.98Z" transform="translate(-285.48 -372.798)"/><path class="m" d="M312.086,396.846l-.616-.277a2.439,2.439,0,0,0,.012-.282,2.21,2.21,0,0,0,0-.239,5.384,5.384,0,0,0-.744-1.749,4.967,4.967,0,0,1-.486-1.671,8.077,8.077,0,0,0-.263-2.132,3.847,3.847,0,0,0-1.089-1.4,5.526,5.526,0,0,0-1.749-1.109,3.093,3.093,0,0,0-2.083-.056,4.5,4.5,0,0,0-1.5,1.084,5.044,5.044,0,0,0-.848.965,4.172,4.172,0,0,0-.478,1.459,22.328,22.328,0,0,0-.294,2.438,2.354,2.354,0,0,1-.7,1.873c-.284.2-.684.319-.814.628a.642.642,0,0,0-.043.292,1.075,1.075,0,0,0,.018.247c.008.048.018.094.03.142a10.475,10.475,0,0,0-.42,1.275c-.087.322-.167.639-.239.945h.3l1.113.026h.016l1.194.027h.006l1.113.026h.027l.321.023h.105l4.449.1h.024l.3.007h.1l.891.02h0l1.313.03h.01l.988.024h.308l-.052-1.036C312.517,396.945,312.086,396.846,312.086,396.846Zm-5-.127a3.889,3.889,0,0,1-.941,1.954l-.947-1.289.035-.05.912,1.242a3.883,3.883,0,0,0,.941-1.954,1.044,1.044,0,0,1,.075-.129l.022.067A1.271,1.271,0,0,0,307.088,396.719Zm1.447,3.447a.718.718,0,0,0-.008-.134c-.008-.044-.007-.084-.013-.126s-.011-.085-.017-.128-.014-.085-.023-.128-.017-.085-.026-.128a.2.2,0,0,0-.009-.043q-.02-.084-.043-.168c-.016-.056-.025-.091-.039-.135a.185.185,0,0,0-.019-.06c-.007-.019-.02-.064-.031-.1l-.021-.062c-.01-.027-.019-.056-.03-.084-.018-.05-.037-.1-.056-.149s-.039-.1-.06-.148c-.041-.1-.085-.2-.129-.3-.173-.387-.368-.768-.547-1.145a6.093,6.093,0,0,1-.255-.606l-.023.03a1.266,1.266,0,0,0-.1.161,3.889,3.889,0,0,1-.941,1.954l-.947-1.289-.828,1.194a.966.966,0,0,0-.332.552c-.026.078-.051.164-.075.253-.017.061-.032.119-.047.187-.008.032-.016.064-.023.1l-.021.1v.016c-.014.069-.029.141-.042.214s-.029.156-.042.239q-.014.078-.025.154c-.017.1-.031.2-.045.3-.008.058-.017.119-.024.173l-.029.222c.061.183.129.358.2.542a.853.853,0,0,1,.078.307,8.7,8.7,0,0,0,4.482,0,.042.042,0,0,1,0-.011,1.246,1.246,0,0,1-.029-.3h0a7.867,7.867,0,0,1,.119-.855,2.921,2.921,0,0,0,.023-.42v-.05c0-.045,0-.086-.006-.125Zm0,0a.718.718,0,0,0-.008-.134c-.008-.044-.007-.084-.013-.126s-.011-.085-.017-.128-.014-.085-.023-.128-.017-.085-.026-.128a.2.2,0,0,0-.009-.043q-.02-.084-.043-.168c-.016-.056-.025-.091-.039-.135a.185.185,0,0,0-.019-.06c-.007-.019-.02-.064-.031-.1l-.021-.062c-.01-.027-.019-.056-.03-.084-.018-.05-.037-.1-.056-.149s-.039-.1-.06-.148c-.041-.1-.085-.2-.129-.3-.173-.387-.368-.768-.547-1.145a6.093,6.093,0,0,1-.255-.606l-.023.03a1.266,1.266,0,0,0-.1.161,3.889,3.889,0,0,1-.941,1.954l-.947-1.289-.828,1.194a.966.966,0,0,0-.332.552c-.026.078-.051.164-.075.253-.017.061-.032.119-.047.187-.008.032-.016.064-.023.1l-.021.1v.016c-.014.069-.029.141-.042.214s-.029.156-.042.239q-.014.078-.025.154c-.017.1-.031.2-.045.3-.008.058-.017.119-.024.173l-.029.222c.061.183.129.358.2.542a.853.853,0,0,1,.078.307,8.7,8.7,0,0,0,4.482,0,.042.042,0,0,1,0-.011,1.246,1.246,0,0,1-.029-.3h0a7.867,7.867,0,0,1,.119-.855,2.921,2.921,0,0,0,.023-.42v-.05c0-.045,0-.086-.006-.125Zm0,0a.718.718,0,0,0-.008-.134c-.008-.044-.007-.084-.013-.126s-.011-.085-.017-.128-.014-.085-.023-.128-.017-.085-.026-.128a.2.2,0,0,0-.009-.043q-.02-.084-.043-.168c-.016-.056-.025-.091-.039-.135a.185.185,0,0,0-.019-.06c-.007-.019-.02-.064-.031-.1l-.021-.062c-.01-.027-.019-.056-.03-.084-.018-.05-.037-.1-.056-.149s-.039-.1-.06-.148c-.041-.1-.085-.2-.129-.3-.173-.387-.368-.768-.547-1.145a6.093,6.093,0,0,1-.255-.606l-.023.03a1.266,1.266,0,0,0-.1.161,3.889,3.889,0,0,1-.941,1.954l-.947-1.289-.828,1.194a.966.966,0,0,0-.332.552c-.026.078-.051.164-.075.253-.017.061-.032.119-.047.187-.008.032-.016.064-.023.1l-.021.1v.016c-.014.069-.029.141-.042.214s-.029.156-.042.239q-.014.078-.025.154c-.017.1-.031.2-.045.3-.008.058-.017.119-.024.173l-.029.222c.061.183.129.358.2.542a.853.853,0,0,1,.078.307,8.7,8.7,0,0,0,4.482,0,.042.042,0,0,1,0-.011,1.246,1.246,0,0,1-.029-.3h0a7.867,7.867,0,0,1,.119-.855,2.921,2.921,0,0,0,.023-.42v-.05c0-.045,0-.086-.006-.125Zm0,0a.718.718,0,0,0-.008-.134c-.008-.044-.007-.084-.013-.126s-.011-.085-.017-.128-.014-.085-.023-.128-.017-.085-.026-.128a.2.2,0,0,0-.009-.043q-.02-.084-.043-.168c-.016-.056-.025-.091-.039-.135a.185.185,0,0,0-.019-.06c-.007-.019-.02-.064-.031-.1l-.021-.062c-.01-.027-.019-.056-.03-.084-.018-.05-.037-.1-.056-.149s-.039-.1-.06-.148c-.041-.1-.085-.2-.129-.3-.173-.387-.368-.768-.547-1.145a6.093,6.093,0,0,1-.255-.606l-.023.03a1.266,1.266,0,0,0-.1.161,3.889,3.889,0,0,1-.941,1.954l-.947-1.289-.828,1.194a.966.966,0,0,0-.332.552c-.026.078-.051.164-.075.253-.017.061-.032.119-.047.187-.008.032-.016.064-.023.1l-.021.1v.016c-.014.069-.029.141-.042.214s-.029.156-.042.239q-.014.078-.025.154c-.017.1-.031.2-.045.3-.008.058-.017.119-.024.173l-.029.222c.061.183.129.358.2.542a.853.853,0,0,1,.078.307,8.7,8.7,0,0,0,4.482,0,.042.042,0,0,1,0-.011,1.246,1.246,0,0,1-.029-.3h0a7.867,7.867,0,0,1,.119-.855,2.921,2.921,0,0,0,.023-.42v-.05c0-.045,0-.086-.006-.125Z" transform="translate(-298.073 -385.99)"/><rect class="n" width="5.491" height="3.701" transform="translate(5.014 5.851)"/><path class="o" d="M333.447,430.585l-2.3,3.237-2.4-.209s-3.134.208-1.045-2.193a5.153,5.153,0,0,0,1.4-2.8,2.171,2.171,0,0,0-.149-1.165l2.611-.313a1.948,1.948,0,0,0-.043,1.09A4.746,4.746,0,0,0,333.447,430.585Z" transform="translate(-322.03 -420.653)"/><path class="g" d="M346.058,428.209a2.609,2.609,0,0,1-2.419.389,2.17,2.17,0,0,0-.149-1.165l2.611-.313A1.948,1.948,0,0,0,346.058,428.209Z" transform="translate(-336.565 -420.635)"/><circle class="o" cx="2.611" cy="2.611" r="2.611" transform="translate(5.307 2.777)"/><path class="g" d="M328.275,449.721l-.061-.239-.053-.21-.078-.31-.014-.057-.012-.048s.062-.187-.347-.127l-.076.013c-.064.013-.14.031-.226.055l-.078.024-.1.032h0a2.239,2.239,0,0,0-.867.523,1.953,1.953,0,0,0-.29.351c-.008.012-.014.023-.021.032a1.126,1.126,0,0,0-.075.138,4.257,4.257,0,0,1-.941,2.089l-.918-1.326-.018-.026-.218-.318-.078-.1-.026-.036-.478-.641-.119-.16-.039-.054-.058-.078-.137-.183-.537.314-.716.418-.418,2.716v.075l.013.224.087,1.475v.02l-.153.611.023.012a7.87,7.87,0,0,0,1.122.5l.1.036c.119.039.232.075.349.11a.421.421,0,0,1,.01.054c0-.017,0-.035,0-.051a8.157,8.157,0,0,0,4.482,0l.027-.008c.068-.019.137-.039.2-.062l.109-.035a8,8,0,0,0,.864-.346l.1-2.137.072-1.541v-.088Z" transform="translate(-316.954 -439.655)"/><path class="i" d="M327.609,454.471a.827.827,0,0,0-.008-.143c-.008-.048-.007-.09-.013-.135s-.011-.091-.017-.136-.014-.091-.023-.136-.017-.091-.026-.136a.205.205,0,0,0-.01-.045c-.013-.06-.027-.119-.043-.18s-.025-.1-.039-.144a.2.2,0,0,0-.019-.063c-.007-.02-.02-.069-.031-.1l-.022-.067c-.01-.03-.019-.06-.03-.09-.018-.054-.037-.106-.056-.16s-.039-.106-.06-.159c-.041-.107-.085-.214-.129-.32-.173-.413-.368-.82-.547-1.224a6.742,6.742,0,0,1-.255-.648l-.023.032a1.369,1.369,0,0,0-.1.172,4.264,4.264,0,0,1-.941,2.089l-.947-1.379-.828,1.274a1.041,1.041,0,0,0-.332.59c-.026.084-.051.174-.075.271-.017.064-.032.132-.047.2-.008.035-.016.069-.023.1l-.021.109v.017c-.014.074-.029.15-.042.228s-.029.167-.042.252q-.014.082-.025.165c-.017.106-.031.214-.045.32-.008.062-.017.119-.024.185l-.029.239c.061.2.129.389.2.579a.961.961,0,0,1,.078.328,8.156,8.156,0,0,0,4.482,0,.046.046,0,0,1,0-.012,1.42,1.42,0,0,1-.029-.326h0a8.961,8.961,0,0,1,.119-.913,3.342,3.342,0,0,0,.023-.449V454.6C327.612,454.557,327.61,454.514,327.609,454.471Zm0,0a.827.827,0,0,0-.008-.143c-.008-.048-.007-.09-.013-.135s-.011-.091-.017-.136-.014-.091-.023-.136-.017-.091-.026-.136a.205.205,0,0,0-.01-.045c-.013-.06-.027-.119-.043-.18s-.025-.1-.039-.144a.2.2,0,0,0-.019-.063c-.007-.02-.02-.069-.031-.1l-.022-.067c-.01-.03-.019-.06-.03-.09-.018-.054-.037-.106-.056-.16s-.039-.106-.06-.159c-.041-.107-.085-.214-.129-.32-.173-.413-.368-.82-.547-1.224a6.742,6.742,0,0,1-.255-.648l-.023.032a1.369,1.369,0,0,0-.1.172,4.264,4.264,0,0,1-.941,2.089l-.947-1.379-.828,1.274a1.041,1.041,0,0,0-.332.59c-.026.084-.051.174-.075.271-.017.064-.032.132-.047.2-.008.035-.016.069-.023.1l-.021.109v.017c-.014.074-.029.15-.042.228s-.029.167-.042.252q-.014.082-.025.165c-.017.106-.031.214-.045.32-.008.062-.017.119-.024.185l-.029.239c.061.2.129.389.2.579a.961.961,0,0,1,.078.328,8.156,8.156,0,0,0,4.482,0,.046.046,0,0,1,0-.012,1.42,1.42,0,0,1-.029-.326h0a8.961,8.961,0,0,1,.119-.913,3.342,3.342,0,0,0,.023-.449V454.6C327.612,454.557,327.61,454.514,327.609,454.471Zm0,0a.827.827,0,0,0-.008-.143c-.008-.048-.007-.09-.013-.135s-.011-.091-.017-.136-.014-.091-.023-.136-.017-.091-.026-.136a.205.205,0,0,0-.01-.045c-.013-.06-.027-.119-.043-.18s-.025-.1-.039-.144a.2.2,0,0,0-.019-.063c-.007-.02-.02-.069-.031-.1l-.022-.067c-.01-.03-.019-.06-.03-.09-.018-.054-.037-.106-.056-.16s-.039-.106-.06-.159c-.041-.107-.085-.214-.129-.32-.173-.413-.368-.82-.547-1.224a6.742,6.742,0,0,1-.255-.648l-.023.032a1.369,1.369,0,0,0-.1.172,4.264,4.264,0,0,1-.941,2.089l-.947-1.379-.828,1.274a1.041,1.041,0,0,0-.332.59c-.026.084-.051.174-.075.271-.017.064-.032.132-.047.2-.008.035-.016.069-.023.1l-.021.109v.017c-.014.074-.029.15-.042.228s-.029.167-.042.252q-.014.082-.025.165c-.017.106-.031.214-.045.32-.008.062-.017.119-.024.185l-.029.239c.061.2.129.389.2.579a.961.961,0,0,1,.078.328,8.156,8.156,0,0,0,4.482,0,.046.046,0,0,1,0-.012,1.42,1.42,0,0,1-.029-.326h0a8.961,8.961,0,0,1,.119-.913,3.342,3.342,0,0,0,.023-.449V454.6C327.612,454.557,327.61,454.514,327.609,454.471Zm1.265-2.241-.426-1.7-.073-.291-.02-.08h0l-.1-.415a.07.07,0,0,0,0-.011h0a.1.1,0,0,0-.008-.054c-.016-.031-.055-.063-.147-.072a.745.745,0,0,0-.105,0h0a1.818,1.818,0,0,0-.307.057c-.049.013-.1.027-.158.045l-.1.032h-.01a2.277,2.277,0,0,0-.752.418,2.029,2.029,0,0,0-.382.423l-.023.032a1.385,1.385,0,0,0-.1.172,4.264,4.264,0,0,1-.941,2.089l-.947-1.379-.054-.078-.01-.013-.137-.2-.1-.138-.027-.036-.489-.653h0l-.155-.211v-.007l-.054-.073-.1-.136-.358.209-.9.522-.413,2.687v.029l.012.2.088,1.5v.085l-.135.538a7.866,7.866,0,0,0,1.122.5l.1.036c.119.039.232.075.349.11a.411.411,0,0,1,.01.054v-.051a8.157,8.157,0,0,0,4.482,0l.027-.008c.068-.019.137-.039.2-.062l.109-.035a7.992,7.992,0,0,0,.864-.346h0l.1-2.134.072-1.524ZM323,456.352a.421.421,0,0,1,.01.054v-.051Zm4.605-1.881a.827.827,0,0,0-.008-.143c-.008-.048-.007-.09-.013-.135s-.011-.091-.017-.136-.014-.091-.023-.136-.017-.091-.026-.136a.205.205,0,0,0-.01-.045c-.013-.06-.027-.119-.043-.18s-.025-.1-.039-.144a.2.2,0,0,0-.019-.063c-.007-.02-.02-.069-.031-.1l-.022-.067c-.01-.03-.019-.06-.03-.09-.018-.054-.037-.106-.056-.16s-.039-.106-.06-.159c-.041-.107-.085-.214-.129-.32-.173-.413-.368-.82-.547-1.224a6.742,6.742,0,0,1-.255-.648l-.023.032a1.369,1.369,0,0,0-.1.172,4.264,4.264,0,0,1-.941,2.089l-.947-1.379-.828,1.274a1.041,1.041,0,0,0-.332.59c-.026.084-.051.174-.075.271-.017.064-.032.132-.047.2-.008.035-.016.069-.023.1l-.021.109v.017c-.014.074-.029.15-.042.228s-.029.167-.042.252q-.014.082-.025.165c-.017.106-.031.214-.045.32-.008.062-.017.119-.024.185l-.029.239c.061.2.129.389.2.579a.961.961,0,0,1,.078.328,8.156,8.156,0,0,0,4.482,0,.046.046,0,0,1,0-.012,1.42,1.42,0,0,1-.029-.326h0a8.961,8.961,0,0,1,.119-.913,3.342,3.342,0,0,0,.023-.449V454.6C327.612,454.557,327.61,454.514,327.609,454.471Zm0,0a.827.827,0,0,0-.008-.143c-.008-.048-.007-.09-.013-.135s-.011-.091-.017-.136-.014-.091-.023-.136-.017-.091-.026-.136a.205.205,0,0,0-.01-.045c-.013-.06-.027-.119-.043-.18s-.025-.1-.039-.144a.2.2,0,0,0-.019-.063c-.007-.02-.02-.069-.031-.1l-.022-.067c-.01-.03-.019-.06-.03-.09-.018-.054-.037-.106-.056-.16s-.039-.106-.06-.159c-.041-.107-.085-.214-.129-.32-.173-.413-.368-.82-.547-1.224a6.742,6.742,0,0,1-.255-.648l-.023.032a1.369,1.369,0,0,0-.1.172,4.264,4.264,0,0,1-.941,2.089l-.947-1.379-.828,1.274a1.041,1.041,0,0,0-.332.59c-.026.084-.051.174-.075.271-.017.064-.032.132-.047.2-.008.035-.016.069-.023.1l-.021.109v.017c-.014.074-.029.15-.042.228s-.029.167-.042.252q-.014.082-.025.165c-.017.106-.031.214-.045.32-.008.062-.017.119-.024.185l-.029.239c.061.2.129.389.2.579a.961.961,0,0,1,.078.328,8.156,8.156,0,0,0,4.482,0,.046.046,0,0,1,0-.012,1.42,1.42,0,0,1-.029-.326h0a8.961,8.961,0,0,1,.119-.913,3.342,3.342,0,0,0,.023-.449V454.6C327.612,454.557,327.61,454.514,327.609,454.471Zm0,0a.827.827,0,0,0-.008-.143c-.008-.048-.007-.09-.013-.135s-.011-.091-.017-.136-.014-.091-.023-.136-.017-.091-.026-.136a.205.205,0,0,0-.01-.045c-.013-.06-.027-.119-.043-.18s-.025-.1-.039-.144a.2.2,0,0,0-.019-.063c-.007-.02-.02-.069-.031-.1l-.022-.067c-.01-.03-.019-.06-.03-.09-.018-.054-.037-.106-.056-.16s-.039-.106-.06-.159c-.041-.107-.085-.214-.129-.32-.173-.413-.368-.82-.547-1.224a6.742,6.742,0,0,1-.255-.648l-.023.032a1.369,1.369,0,0,0-.1.172,4.264,4.264,0,0,1-.941,2.089l-.947-1.379-.828,1.274a1.041,1.041,0,0,0-.332.59c-.026.084-.051.174-.075.271-.017.064-.032.132-.047.2-.008.035-.016.069-.023.1l-.021.109v.017c-.014.074-.029.15-.042.228s-.029.167-.042.252q-.014.082-.025.165c-.017.106-.031.214-.045.32-.008.062-.017.119-.024.185l-.029.239c.061.2.129.389.2.579a.961.961,0,0,1,.078.328,8.156,8.156,0,0,0,4.482,0,.046.046,0,0,1,0-.012,1.42,1.42,0,0,1-.029-.326h0a8.961,8.961,0,0,1,.119-.913,3.342,3.342,0,0,0,.023-.449V454.6C327.612,454.557,327.61,454.514,327.609,454.471Zm0,0a.827.827,0,0,0-.008-.143c-.008-.048-.007-.09-.013-.135s-.011-.091-.017-.136-.014-.091-.023-.136-.017-.091-.026-.136a.205.205,0,0,0-.01-.045c-.013-.06-.027-.119-.043-.18s-.025-.1-.039-.144a.2.2,0,0,0-.019-.063c-.007-.02-.02-.069-.031-.1l-.022-.067c-.01-.03-.019-.06-.03-.09-.018-.054-.037-.106-.056-.16s-.039-.106-.06-.159c-.041-.107-.085-.214-.129-.32-.173-.413-.368-.82-.547-1.224a6.742,6.742,0,0,1-.255-.648l-.023.032a1.369,1.369,0,0,0-.1.172,4.264,4.264,0,0,1-.941,2.089l-.947-1.379-.828,1.274a1.041,1.041,0,0,0-.332.59c-.026.084-.051.174-.075.271-.017.064-.032.132-.047.2-.008.035-.016.069-.023.1l-.021.109v.017c-.014.074-.029.15-.042.228s-.029.167-.042.252q-.014.082-.025.165c-.017.106-.031.214-.045.32-.008.062-.017.119-.024.185l-.029.239c.061.2.129.389.2.579a.961.961,0,0,1,.078.328,8.156,8.156,0,0,0,4.482,0,.046.046,0,0,1,0-.012,1.42,1.42,0,0,1-.029-.326h0a8.961,8.961,0,0,1,.119-.913,3.342,3.342,0,0,0,.023-.449V454.6C327.612,454.557,327.61,454.514,327.609,454.471Zm0,0a.827.827,0,0,0-.008-.143c-.008-.048-.007-.09-.013-.135s-.011-.091-.017-.136-.014-.091-.023-.136-.017-.091-.026-.136a.205.205,0,0,0-.01-.045c-.013-.06-.027-.119-.043-.18s-.025-.1-.039-.144a.2.2,0,0,0-.019-.063c-.007-.02-.02-.069-.031-.1l-.022-.067c-.01-.03-.019-.06-.03-.09-.018-.054-.037-.106-.056-.16s-.039-.106-.06-.159c-.041-.107-.085-.214-.129-.32-.173-.413-.368-.82-.547-1.224a6.742,6.742,0,0,1-.255-.648l-.023.032a1.369,1.369,0,0,0-.1.172,4.264,4.264,0,0,1-.941,2.089l-.947-1.379-.828,1.274a1.041,1.041,0,0,0-.332.59c-.026.084-.051.174-.075.271-.017.064-.032.132-.047.2-.008.035-.016.069-.023.1l-.021.109v.017c-.014.074-.029.15-.042.228s-.029.167-.042.252q-.014.082-.025.165c-.017.106-.031.214-.045.32-.008.062-.017.119-.024.185l-.029.239c.061.2.129.389.2.579a.961.961,0,0,1,.078.328,8.156,8.156,0,0,0,4.482,0,.046.046,0,0,1,0-.012,1.42,1.42,0,0,1-.029-.326h0a8.961,8.961,0,0,1,.119-.913,3.342,3.342,0,0,0,.023-.449V454.6C327.612,454.557,327.61,454.514,327.609,454.471Zm0,0a.827.827,0,0,0-.008-.143c-.008-.048-.007-.09-.013-.135s-.011-.091-.017-.136-.014-.091-.023-.136-.017-.091-.026-.136a.205.205,0,0,0-.01-.045c-.013-.06-.027-.119-.043-.18s-.025-.1-.039-.144a.2.2,0,0,0-.019-.063c-.007-.02-.02-.069-.031-.1l-.022-.067c-.01-.03-.019-.06-.03-.09-.018-.054-.037-.106-.056-.16s-.039-.106-.06-.159c-.041-.107-.085-.214-.129-.32-.173-.413-.368-.82-.547-1.224a6.742,6.742,0,0,1-.255-.648l-.023.032a1.369,1.369,0,0,0-.1.172,4.264,4.264,0,0,1-.941,2.089l-.947-1.379-.828,1.274a1.041,1.041,0,0,0-.332.59c-.026.084-.051.174-.075.271-.017.064-.032.132-.047.2-.008.035-.016.069-.023.1l-.021.109v.017c-.014.074-.029.15-.042.228s-.029.167-.042.252q-.014.082-.025.165c-.017.106-.031.214-.045.32-.008.062-.017.119-.024.185l-.029.239c.061.2.129.389.2.579a.961.961,0,0,1,.078.328,8.156,8.156,0,0,0,4.482,0,.046.046,0,0,1,0-.012,1.42,1.42,0,0,1-.029-.326h0a8.961,8.961,0,0,1,.119-.913,3.342,3.342,0,0,0,.023-.449V454.6C327.612,454.557,327.61,454.514,327.609,454.471Zm0,0a.827.827,0,0,0-.008-.143c-.008-.048-.007-.09-.013-.135s-.011-.091-.017-.136-.014-.091-.023-.136-.017-.091-.026-.136a.205.205,0,0,0-.01-.045c-.013-.06-.027-.119-.043-.18s-.025-.1-.039-.144a.2.2,0,0,0-.019-.063c-.007-.02-.02-.069-.031-.1l-.022-.067c-.01-.03-.019-.06-.03-.09-.018-.054-.037-.106-.056-.16s-.039-.106-.06-.159c-.041-.107-.085-.214-.129-.32-.173-.413-.368-.82-.547-1.224a6.742,6.742,0,0,1-.255-.648l-.023.032a1.369,1.369,0,0,0-.1.172,4.264,4.264,0,0,1-.941,2.089l-.947-1.379-.828,1.274a1.041,1.041,0,0,0-.332.59c-.026.084-.051.174-.075.271-.017.064-.032.132-.047.2-.008.035-.016.069-.023.1l-.021.109v.017c-.014.074-.029.15-.042.228s-.029.167-.042.252q-.014.082-.025.165c-.017.106-.031.214-.045.32-.008.062-.017.119-.024.185l-.029.239c.061.2.129.389.2.579a.961.961,0,0,1,.078.328,8.156,8.156,0,0,0,4.482,0,.046.046,0,0,1,0-.012,1.42,1.42,0,0,1-.029-.326h0a8.961,8.961,0,0,1,.119-.913,3.342,3.342,0,0,0,.023-.449V454.6C327.612,454.557,327.61,454.514,327.609,454.471Zm0,0a.827.827,0,0,0-.008-.143c-.008-.048-.007-.09-.013-.135s-.011-.091-.017-.136-.014-.091-.023-.136-.017-.091-.026-.136a.205.205,0,0,0-.01-.045c-.013-.06-.027-.119-.043-.18s-.025-.1-.039-.144a.2.2,0,0,0-.019-.063c-.007-.02-.02-.069-.031-.1l-.022-.067c-.01-.03-.019-.06-.03-.09-.018-.054-.037-.106-.056-.16s-.039-.106-.06-.159c-.041-.107-.085-.214-.129-.32-.173-.413-.368-.82-.547-1.224a6.742,6.742,0,0,1-.255-.648l-.023.032a1.369,1.369,0,0,0-.1.172,4.264,4.264,0,0,1-.941,2.089l-.947-1.379-.828,1.274a1.041,1.041,0,0,0-.332.59c-.026.084-.051.174-.075.271-.017.064-.032.132-.047.2-.008.035-.016.069-.023.1l-.021.109v.017c-.014.074-.029.15-.042.228s-.029.167-.042.252q-.014.082-.025.165c-.017.106-.031.214-.045.32-.008.062-.017.119-.024.185l-.029.239c.061.2.129.389.2.579a.961.961,0,0,1,.078.328,8.156,8.156,0,0,0,4.482,0,.046.046,0,0,1,0-.012,1.42,1.42,0,0,1-.029-.326h0a8.961,8.961,0,0,1,.119-.913,3.342,3.342,0,0,0,.023-.449V454.6C327.612,454.557,327.61,454.514,327.609,454.471Z" transform="translate(-317.147 -440.436)"/><path class="g" d="M306.926,451.64l-.08-.011a2.911,2.911,0,0,1-.358-.072l-.044-.012c-.291-.082-.61-.23-.682-.491a.464.464,0,0,1,.007-.254,2.179,2.179,0,0,1,.162-.411v-.007a.562.562,0,0,1,.03-.054,1.194,1.194,0,0,1,.431-.469l-.143.023-1.213.2-1.88.3s-.334-.067-.789,1.187a.2.2,0,0,1-.016.047c-.11.307-.226.69-.345,1.169-.082.332-.158.658-.227.974-.02.1-.041.19-.06.283a7.583,7.583,0,0,0,.694.716l.039.037a8.144,8.144,0,0,0,1.59,1.126l.023.012a7.868,7.868,0,0,0,1.122.5l.1.036c.022-.221.045-.466.074-.716a.2.2,0,0,1,.01-.075l.029-.239c.007-.061.016-.119.024-.185.014-.106.029-.214.045-.32q.011-.082.025-.165c.013-.085.027-.169.042-.252s.027-.154.042-.228v-.017l.022-.109c.007-.036.014-.07.023-.105.014-.068.03-.136.047-.2.024-.1.049-.187.075-.271a1.02,1.02,0,0,1,.332-.59l.828-1.274.035-.054.016-.024Z" transform="translate(-299.781 -440.661)"/><path class="p" d="M306.239,451.66l-.88,1.351a1.009,1.009,0,0,0-.326.572c-.027.088-.055.185-.081.286a14.271,14.271,0,0,0-.27,1.563.185.185,0,0,1-.01.072c-.041.332-.074.658-.1.945a7.864,7.864,0,0,1-1.122-.5l-.023-.012a8.15,8.15,0,0,1-1.59-1.126l-.039-.037a7.582,7.582,0,0,1-.694-.716c-.029-.032-.056-.066-.084-.1.013-.062.026-.119.041-.186.068-.316.143-.641.226-.972a11.753,11.753,0,0,1,.406-1.337.372.372,0,0,1,.016-.038c.423-1.087.727-1.027.727-1.027l1.985-.32,1.253-.2-.039.023a1.273,1.273,0,0,0-.345.368l-.035.059c-.014.023-.027.048-.042.073a2.116,2.116,0,0,0-.165.418.439.439,0,0,0,.029.341,1.137,1.137,0,0,0,.736.427l.047.012A3,3,0,0,0,306.239,451.66Z" transform="translate(-299.165 -440.679)"/><path class="g" d="M375.213,451.827l-.049-1.06c.209-1.671-.209-1.775-.209-1.775l-.5-.239h-.013l-2-.968-.078-.038-.024-.011h0l-.26-.126h0l-.165-.08-.308-.149-.1-.05v.414c0,.119.011.259.02.421.022.408.061.955.131,1.6.039.374.09.782.152,1.22.037.259.063.517.08.769a13.536,13.536,0,0,1-.079,2.543l.109-.035a7.989,7.989,0,0,0,.864-.346h0a7.93,7.93,0,0,0,1.54-.945l.021-.016a7.96,7.96,0,0,0,.867-.787Z" transform="translate(-361.24 -438.433)"/><path class="p" d="M376.075,451.783l-.049-1.062c.209-1.671-.209-1.775-.209-1.775l-.6-.289h-.012l-2-.972-.092-.044-.018-.008-.147-.072-.195-.094-.384-.186v.169h0v.21c0,.119.011.276.021.454.02.381.056.88.119,1.473.043.407.1.859.167,1.347q.055.39.079.772a13.51,13.51,0,0,1-.074,2.507,8,8,0,0,0,.864-.346h0a7.932,7.932,0,0,0,1.54-.945l.022-.016a7.965,7.965,0,0,0,.867-.787q.053-.053.1-.107Z" transform="translate(-361.998 -438.389)"/><path class="g" d="M317.931,390.856a1.737,1.737,0,0,0-.164.6c-.128.467-.634.759-.75,1.23-.068.275.011.566-.036.845-.085.515-.555.863-.818,1.313a1.772,1.772,0,0,0-.109,1.54,2.47,2.47,0,0,1,.152.389,1.421,1.421,0,0,1-.037.6,1.892,1.892,0,0,0,.024,1.276,1.221,1.221,0,0,0,.894.573,3.474,3.474,0,0,0,1.095-.05,3.167,3.167,0,0,0,1.144-.334l-1.293-3.12a2.6,2.6,0,0,1-.263-.982,2.158,2.158,0,0,1,.161-.733,6.351,6.351,0,0,1,1.074-1.856c.187.217.173.548.329.789a1.246,1.246,0,0,0,.532.4,17.643,17.643,0,0,0,1.885.788.247.247,0,0,1,.184.368l-.487,2.01a1.559,1.559,0,0,0,.074,1.313c.276.358.9.528.9.99a1.58,1.58,0,0,0,0,.22c.032.216.289.32.507.331a1.512,1.512,0,0,0,1.517-1.238c.119-.79-.4-1.518-.622-2.288-.368-1.3.119-2.815-.6-3.952a3.364,3.364,0,0,0-2.663-1.288C319.852,390.495,318.431,390.2,317.931,390.856Z" transform="translate(-312.294 -388.332)"/><path class="n" d="M317.931,389.856a1.737,1.737,0,0,0-.164.6c-.128.467-.634.759-.75,1.23-.068.275.011.566-.036.845-.085.515-.555.863-.818,1.313a1.772,1.772,0,0,0-.109,1.54,2.467,2.467,0,0,1,.152.389,1.421,1.421,0,0,1-.037.6,1.892,1.892,0,0,0,.024,1.276,1.221,1.221,0,0,0,.894.573,3.478,3.478,0,0,0,1.095-.05,3.168,3.168,0,0,0,1.144-.334l-1.293-3.12a2.6,2.6,0,0,1-.263-.982,2.159,2.159,0,0,1,.161-.733,6.35,6.35,0,0,1,1.074-1.856c.187.217.173.548.329.789a1.245,1.245,0,0,0,.532.4,17.643,17.643,0,0,0,1.885.788.247.247,0,0,1,.184.368l-.487,2.01a1.559,1.559,0,0,0,.074,1.313c.276.358.9.528.9.99a1.579,1.579,0,0,0,0,.22c.032.216.289.32.507.331a1.512,1.512,0,0,0,1.517-1.238c.119-.79-.4-1.518-.622-2.288-.368-1.3.119-2.815-.6-3.952a3.364,3.364,0,0,0-2.663-1.288C319.852,389.495,318.431,389.2,317.931,389.856Z" transform="translate(-312.294 -387.452)"/></g><g class="b" transform="translate(28.922 70.417)"><path class="j" d="M301.715,621.916a8.079,8.079,0,0,1-1.954,5.282c-.062.073-.126.144-.192.215q-.049.055-.1.107a7.969,7.969,0,0,1-.867.787l-.022.016a7.933,7.933,0,0,1-1.54.945h0a8,8,0,0,1-.864.346l-.109.035c-.067.023-.136.043-.2.062l-.027.008a8.158,8.158,0,0,1-4.482,0h-.012c-.119-.035-.239-.07-.349-.11l-.1-.036a7.863,7.863,0,0,1-1.122-.5l-.023-.012a8.151,8.151,0,0,1-1.59-1.126l-.039-.037a7.579,7.579,0,0,1-.694-.716c-.029-.032-.056-.066-.084-.1-.053-.062-.1-.127-.153-.191a8.117,8.117,0,1,1,14.528-4.98Z" transform="translate(-285.48 -613.798)"/><path class="q" d="M313.225,638.623l-.049-1.074c.209-1.7-.209-1.8-.209-1.8l-.6-.294-.012-.006-2-.987-.092-.045-.012-.049s.039-.119-.159-.14a.727.727,0,0,1-.05-.3,1.306,1.306,0,0,1,.328-.6,2.452,2.452,0,0,0,.393-1.739,4.092,4.092,0,0,0-.666-1.681l-.038-.056a2.022,2.022,0,0,0,.07-.528c0-1.374-1.389-2.488-3.1-2.488a2.975,2.975,0,0,0-3.069,2.115,1.075,1.075,0,0,0-.094.148c-.315.59.172,1.03.187,1.619a2.093,2.093,0,0,1-.478,1.1,1.1,1.1,0,0,0-.154,1.14c.073.112.183.2.248.314.23.407-.153.874-.292,1.32a1.265,1.265,0,0,0-.038.159l-.922.15s-.3-.062-.727,1.043a.384.384,0,0,0-.016.039,12.1,12.1,0,0,0-.406,1.36q-.124.505-.226.987c-.014.063-.027.127-.041.19.027.033.055.068.084.1a7.661,7.661,0,0,0,.694.731l.039.038a8.15,8.15,0,0,0,1.59,1.145l.023.012a7.819,7.819,0,0,0,1.122.5l.1.036c.119.041.232.076.349.112a.443.443,0,0,1,.01.055v-.052a8.03,8.03,0,0,0,4.482,0l.027-.008c.068-.019.137-.041.2-.063l.109-.035a8.054,8.054,0,0,0,2.4-1.313l.022-.016a8.012,8.012,0,0,0,.867-.8q.053-.052.1-.109Z" transform="translate(-299.147 -625.274)"/><path class="p" d="M321.1,645.752a2.009,2.009,0,0,1-.478,1.074,1.063,1.063,0,0,0-.154,1.121c.073.11.183.195.248.309.23.4-.153.859-.292,1.3a1.631,1.631,0,0,0,.365,1.486,3.956,3.956,0,0,0,1.28.935,11.42,11.42,0,0,0,3.166,1.127,3.031,3.031,0,0,0,1.736-.078A1.845,1.845,0,0,0,328.016,651a11.546,11.546,0,0,0-.836-1.726.808.808,0,0,1-.079-.374,1.262,1.262,0,0,1,.328-.585,2.388,2.388,0,0,0,.387-1.7,3.987,3.987,0,0,0-.666-1.654,1.81,1.81,0,0,0-.477-.525,2.094,2.094,0,0,0-.893-.27c-1.3-.182-2.639-.38-3.946-.446a.847.847,0,0,0-.92.446C320.6,644.74,321.088,645.173,321.1,645.752Z" transform="translate(-316.201 -640.142)"/><path class="o" d="M337.818,671.3l-2.46,3.5-2.4-.209s-.079.836-1.045-2.193c-.54-1.694.558-1.105.774-1.575s.6-.883.629-1.229a2.17,2.17,0,0,0-.149-1.165l2.611-.313a1.948,1.948,0,0,0-.043,1.09C336.059,670.568,337.818,671.3,337.818,671.3Z" transform="translate(-326.238 -661.635)"/><ellipse class="p" cx="3.104" cy="2.447" rx="3.104" ry="2.447" transform="translate(4.775 1.792)"/><path class="g" d="M346.058,669.209a2.61,2.61,0,0,1-2.419.389,2.17,2.17,0,0,0-.149-1.165l2.611-.313A1.948,1.948,0,0,0,346.058,669.209Z" transform="translate(-336.565 -661.635)"/><circle class="o" cx="2.611" cy="2.611" r="2.611" transform="translate(5.307 2.777)"/><path class="g" d="M328.275,690.721l-.061-.239-.053-.21-.078-.31-.014-.057-.012-.048s.062-.187-.347-.127l-.076.013c-.064.013-.14.031-.226.055l-.078.024-.1.032h0a2.238,2.238,0,0,0-.867.523,1.952,1.952,0,0,0-.29.351c-.008.012-.014.023-.021.032a1.124,1.124,0,0,0-.075.138,4.258,4.258,0,0,1-.941,2.089l-.918-1.326-.018-.026-.218-.318-.078-.1-.026-.036-.478-.641-.119-.16-.039-.054-.058-.078-.137-.183-.537.314-.716.418-.418,2.716v.075l.013.224.087,1.475v.02l-.153.611.023.012a7.87,7.87,0,0,0,1.122.5l.1.036c.119.039.232.075.349.11a.428.428,0,0,1,.01.054v-.051a8.156,8.156,0,0,0,4.482,0l.027-.008c.068-.019.137-.039.2-.062l.109-.035a8.033,8.033,0,0,0,.864-.346l.1-2.137.072-1.541v-.088Z" transform="translate(-316.954 -680.655)"/><path class="p" d="M327.609,695.471a.826.826,0,0,0-.008-.143c-.008-.048-.007-.09-.013-.135s-.011-.091-.017-.136-.014-.091-.023-.136-.017-.091-.026-.136a.2.2,0,0,0-.01-.045c-.013-.06-.027-.119-.043-.18s-.025-.1-.039-.144a.206.206,0,0,0-.019-.063c-.007-.02-.02-.069-.031-.1l-.022-.067c-.01-.03-.019-.06-.03-.089-.018-.054-.037-.106-.056-.16s-.039-.106-.06-.159c-.041-.107-.085-.214-.129-.32-.173-.413-.368-.82-.547-1.224a6.751,6.751,0,0,1-.255-.648l-.023.032a1.374,1.374,0,0,0-.1.172,4.264,4.264,0,0,1-.941,2.089l-.947-1.379-.828,1.274a1.041,1.041,0,0,0-.332.59c-.026.084-.051.174-.075.271-.017.064-.032.132-.047.2-.008.035-.016.069-.023.105l-.021.109v.017c-.014.074-.029.15-.042.228s-.029.167-.042.252q-.014.082-.025.165c-.017.106-.031.214-.045.32-.008.062-.017.119-.024.185l-.029.239c.061.2.129.389.2.579a.962.962,0,0,1,.078.328,8.156,8.156,0,0,0,4.482,0,.046.046,0,0,1,0-.012,1.421,1.421,0,0,1-.029-.326h0a8.961,8.961,0,0,1,.119-.913,3.342,3.342,0,0,0,.023-.449V695.6C327.612,695.557,327.61,695.514,327.609,695.471Zm0,0a.826.826,0,0,0-.008-.143c-.008-.048-.007-.09-.013-.135s-.011-.091-.017-.136-.014-.091-.023-.136-.017-.091-.026-.136a.2.2,0,0,0-.01-.045c-.013-.06-.027-.119-.043-.18s-.025-.1-.039-.144a.206.206,0,0,0-.019-.063c-.007-.02-.02-.069-.031-.1l-.022-.067c-.01-.03-.019-.06-.03-.089-.018-.054-.037-.106-.056-.16s-.039-.106-.06-.159c-.041-.107-.085-.214-.129-.32-.173-.413-.368-.82-.547-1.224a6.751,6.751,0,0,1-.255-.648l-.023.032a1.374,1.374,0,0,0-.1.172,4.264,4.264,0,0,1-.941,2.089l-.947-1.379-.828,1.274a1.041,1.041,0,0,0-.332.59c-.026.084-.051.174-.075.271-.017.064-.032.132-.047.2-.008.035-.016.069-.023.105l-.021.109v.017c-.014.074-.029.15-.042.228s-.029.167-.042.252q-.014.082-.025.165c-.017.106-.031.214-.045.32-.008.062-.017.119-.024.185l-.029.239c.061.2.129.389.2.579a.962.962,0,0,1,.078.328,8.156,8.156,0,0,0,4.482,0,.046.046,0,0,1,0-.012,1.421,1.421,0,0,1-.029-.326h0a8.961,8.961,0,0,1,.119-.913,3.342,3.342,0,0,0,.023-.449V695.6C327.612,695.557,327.61,695.514,327.609,695.471Zm0,0a.826.826,0,0,0-.008-.143c-.008-.048-.007-.09-.013-.135s-.011-.091-.017-.136-.014-.091-.023-.136-.017-.091-.026-.136a.2.2,0,0,0-.01-.045c-.013-.06-.027-.119-.043-.18s-.025-.1-.039-.144a.206.206,0,0,0-.019-.063c-.007-.02-.02-.069-.031-.1l-.022-.067c-.01-.03-.019-.06-.03-.089-.018-.054-.037-.106-.056-.16s-.039-.106-.06-.159c-.041-.107-.085-.214-.129-.32-.173-.413-.368-.82-.547-1.224a6.751,6.751,0,0,1-.255-.648l-.023.032a1.374,1.374,0,0,0-.1.172,4.264,4.264,0,0,1-.941,2.089l-.947-1.379-.828,1.274a1.041,1.041,0,0,0-.332.59c-.026.084-.051.174-.075.271-.017.064-.032.132-.047.2-.008.035-.016.069-.023.105l-.021.109v.017c-.014.074-.029.15-.042.228s-.029.167-.042.252q-.014.082-.025.165c-.017.106-.031.214-.045.32-.008.062-.017.119-.024.185l-.029.239c.061.2.129.389.2.579a.962.962,0,0,1,.078.328,8.156,8.156,0,0,0,4.482,0,.046.046,0,0,1,0-.012,1.421,1.421,0,0,1-.029-.326h0a8.961,8.961,0,0,1,.119-.913,3.342,3.342,0,0,0,.023-.449V695.6C327.612,695.557,327.61,695.514,327.609,695.471Zm1.265-2.241-.426-1.7-.073-.291-.02-.08h0l-.1-.415a.071.071,0,0,0,0-.011h0a.1.1,0,0,0-.008-.054c-.016-.031-.055-.063-.147-.072a.727.727,0,0,0-.105,0h0a1.818,1.818,0,0,0-.307.057c-.049.013-.1.028-.158.045l-.1.032h-.01a2.276,2.276,0,0,0-.752.418,2.024,2.024,0,0,0-.382.422l-.023.032a1.385,1.385,0,0,0-.1.172,4.263,4.263,0,0,1-.941,2.089l-.947-1.379-.054-.078-.01-.013-.137-.2-.1-.138-.027-.036-.489-.653h0l-.155-.211v-.007l-.054-.073-.1-.136-.358.209-.9.522-.413,2.687v.029l.012.2.088,1.5v.085l-.135.538a7.876,7.876,0,0,0,1.122.5l.1.036c.119.039.232.075.349.11a.411.411,0,0,1,.01.054v-.051a8.158,8.158,0,0,0,4.482,0l.027-.008c.068-.019.137-.039.2-.062l.109-.035a8.026,8.026,0,0,0,.864-.346h0l.1-2.134.072-1.524ZM323,697.352a.422.422,0,0,1,.01.054v-.051Zm4.605-1.881a.826.826,0,0,0-.008-.143c-.008-.048-.007-.09-.013-.135s-.011-.091-.017-.136-.014-.091-.023-.136-.017-.091-.026-.136a.2.2,0,0,0-.01-.045c-.013-.06-.027-.119-.043-.18s-.025-.1-.039-.144a.206.206,0,0,0-.019-.063c-.007-.02-.02-.069-.031-.1l-.022-.067c-.01-.03-.019-.06-.03-.089-.018-.054-.037-.106-.056-.16s-.039-.106-.06-.159c-.041-.107-.085-.214-.129-.32-.173-.413-.368-.82-.547-1.224a6.751,6.751,0,0,1-.255-.648l-.023.032a1.374,1.374,0,0,0-.1.172,4.264,4.264,0,0,1-.941,2.089l-.947-1.379-.828,1.274a1.041,1.041,0,0,0-.332.59c-.026.084-.051.174-.075.271-.017.064-.032.132-.047.2-.008.035-.016.069-.023.105l-.021.109v.017c-.014.074-.029.15-.042.228s-.029.167-.042.252q-.014.082-.025.165c-.017.106-.031.214-.045.32-.008.062-.017.119-.024.185l-.029.239c.061.2.129.389.2.579a.962.962,0,0,1,.078.328,8.156,8.156,0,0,0,4.482,0,.046.046,0,0,1,0-.012,1.421,1.421,0,0,1-.029-.326h0a8.961,8.961,0,0,1,.119-.913,3.342,3.342,0,0,0,.023-.449V695.6C327.612,695.557,327.61,695.514,327.609,695.471Zm0,0a.826.826,0,0,0-.008-.143c-.008-.048-.007-.09-.013-.135s-.011-.091-.017-.136-.014-.091-.023-.136-.017-.091-.026-.136a.2.2,0,0,0-.01-.045c-.013-.06-.027-.119-.043-.18s-.025-.1-.039-.144a.206.206,0,0,0-.019-.063c-.007-.02-.02-.069-.031-.1l-.022-.067c-.01-.03-.019-.06-.03-.089-.018-.054-.037-.106-.056-.16s-.039-.106-.06-.159c-.041-.107-.085-.214-.129-.32-.173-.413-.368-.82-.547-1.224a6.751,6.751,0,0,1-.255-.648l-.023.032a1.374,1.374,0,0,0-.1.172,4.264,4.264,0,0,1-.941,2.089l-.947-1.379-.828,1.274a1.041,1.041,0,0,0-.332.59c-.026.084-.051.174-.075.271-.017.064-.032.132-.047.2-.008.035-.016.069-.023.105l-.021.109v.017c-.014.074-.029.15-.042.228s-.029.167-.042.252q-.014.082-.025.165c-.017.106-.031.214-.045.32-.008.062-.017.119-.024.185l-.029.239c.061.2.129.389.2.579a.962.962,0,0,1,.078.328,8.156,8.156,0,0,0,4.482,0,.046.046,0,0,1,0-.012,1.421,1.421,0,0,1-.029-.326h0a8.961,8.961,0,0,1,.119-.913,3.342,3.342,0,0,0,.023-.449V695.6C327.612,695.557,327.61,695.514,327.609,695.471Zm0,0a.826.826,0,0,0-.008-.143c-.008-.048-.007-.09-.013-.135s-.011-.091-.017-.136-.014-.091-.023-.136-.017-.091-.026-.136a.2.2,0,0,0-.01-.045c-.013-.06-.027-.119-.043-.18s-.025-.1-.039-.144a.206.206,0,0,0-.019-.063c-.007-.02-.02-.069-.031-.1l-.022-.067c-.01-.03-.019-.06-.03-.089-.018-.054-.037-.106-.056-.16s-.039-.106-.06-.159c-.041-.107-.085-.214-.129-.32-.173-.413-.368-.82-.547-1.224a6.751,6.751,0,0,1-.255-.648l-.023.032a1.374,1.374,0,0,0-.1.172,4.264,4.264,0,0,1-.941,2.089l-.947-1.379-.828,1.274a1.041,1.041,0,0,0-.332.59c-.026.084-.051.174-.075.271-.017.064-.032.132-.047.2-.008.035-.016.069-.023.105l-.021.109v.017c-.014.074-.029.15-.042.228s-.029.167-.042.252q-.014.082-.025.165c-.017.106-.031.214-.045.32-.008.062-.017.119-.024.185l-.029.239c.061.2.129.389.2.579a.962.962,0,0,1,.078.328,8.156,8.156,0,0,0,4.482,0,.046.046,0,0,1,0-.012,1.421,1.421,0,0,1-.029-.326h0a8.961,8.961,0,0,1,.119-.913,3.342,3.342,0,0,0,.023-.449V695.6C327.612,695.557,327.61,695.514,327.609,695.471Zm0,0a.826.826,0,0,0-.008-.143c-.008-.048-.007-.09-.013-.135s-.011-.091-.017-.136-.014-.091-.023-.136-.017-.091-.026-.136a.2.2,0,0,0-.01-.045c-.013-.06-.027-.119-.043-.18s-.025-.1-.039-.144a.206.206,0,0,0-.019-.063c-.007-.02-.02-.069-.031-.1l-.022-.067c-.01-.03-.019-.06-.03-.089-.018-.054-.037-.106-.056-.16s-.039-.106-.06-.159c-.041-.107-.085-.214-.129-.32-.173-.413-.368-.82-.547-1.224a6.751,6.751,0,0,1-.255-.648l-.023.032a1.374,1.374,0,0,0-.1.172,4.264,4.264,0,0,1-.941,2.089l-.947-1.379-.828,1.274a1.041,1.041,0,0,0-.332.59c-.026.084-.051.174-.075.271-.017.064-.032.132-.047.2-.008.035-.016.069-.023.105l-.021.109v.017c-.014.074-.029.15-.042.228s-.029.167-.042.252q-.014.082-.025.165c-.017.106-.031.214-.045.32-.008.062-.017.119-.024.185l-.029.239c.061.2.129.389.2.579a.962.962,0,0,1,.078.328,8.156,8.156,0,0,0,4.482,0,.046.046,0,0,1,0-.012,1.421,1.421,0,0,1-.029-.326h0a8.961,8.961,0,0,1,.119-.913,3.342,3.342,0,0,0,.023-.449V695.6C327.612,695.557,327.61,695.514,327.609,695.471Zm0,0a.826.826,0,0,0-.008-.143c-.008-.048-.007-.09-.013-.135s-.011-.091-.017-.136-.014-.091-.023-.136-.017-.091-.026-.136a.2.2,0,0,0-.01-.045c-.013-.06-.027-.119-.043-.18s-.025-.1-.039-.144a.206.206,0,0,0-.019-.063c-.007-.02-.02-.069-.031-.1l-.022-.067c-.01-.03-.019-.06-.03-.089-.018-.054-.037-.106-.056-.16s-.039-.106-.06-.159c-.041-.107-.085-.214-.129-.32-.173-.413-.368-.82-.547-1.224a6.751,6.751,0,0,1-.255-.648l-.023.032a1.374,1.374,0,0,0-.1.172,4.264,4.264,0,0,1-.941,2.089l-.947-1.379-.828,1.274a1.041,1.041,0,0,0-.332.59c-.026.084-.051.174-.075.271-.017.064-.032.132-.047.2-.008.035-.016.069-.023.105l-.021.109v.017c-.014.074-.029.15-.042.228s-.029.167-.042.252q-.014.082-.025.165c-.017.106-.031.214-.045.32-.008.062-.017.119-.024.185l-.029.239c.061.2.129.389.2.579a.962.962,0,0,1,.078.328,8.156,8.156,0,0,0,4.482,0,.046.046,0,0,1,0-.012,1.421,1.421,0,0,1-.029-.326h0a8.961,8.961,0,0,1,.119-.913,3.342,3.342,0,0,0,.023-.449V695.6C327.612,695.557,327.61,695.514,327.609,695.471Zm0,0a.826.826,0,0,0-.008-.143c-.008-.048-.007-.09-.013-.135s-.011-.091-.017-.136-.014-.091-.023-.136-.017-.091-.026-.136a.2.2,0,0,0-.01-.045c-.013-.06-.027-.119-.043-.18s-.025-.1-.039-.144a.206.206,0,0,0-.019-.063c-.007-.02-.02-.069-.031-.1l-.022-.067c-.01-.03-.019-.06-.03-.089-.018-.054-.037-.106-.056-.16s-.039-.106-.06-.159c-.041-.107-.085-.214-.129-.32-.173-.413-.368-.82-.547-1.224a6.751,6.751,0,0,1-.255-.648l-.023.032a1.374,1.374,0,0,0-.1.172,4.264,4.264,0,0,1-.941,2.089l-.947-1.379-.828,1.274a1.041,1.041,0,0,0-.332.59c-.026.084-.051.174-.075.271-.017.064-.032.132-.047.2-.008.035-.016.069-.023.105l-.021.109v.017c-.014.074-.029.15-.042.228s-.029.167-.042.252q-.014.082-.025.165c-.017.106-.031.214-.045.32-.008.062-.017.119-.024.185l-.029.239c.061.2.129.389.2.579a.962.962,0,0,1,.078.328,8.156,8.156,0,0,0,4.482,0,.046.046,0,0,1,0-.012,1.421,1.421,0,0,1-.029-.326h0a8.961,8.961,0,0,1,.119-.913,3.342,3.342,0,0,0,.023-.449V695.6C327.612,695.557,327.61,695.514,327.609,695.471Zm0,0a.826.826,0,0,0-.008-.143c-.008-.048-.007-.09-.013-.135s-.011-.091-.017-.136-.014-.091-.023-.136-.017-.091-.026-.136a.2.2,0,0,0-.01-.045c-.013-.06-.027-.119-.043-.18s-.025-.1-.039-.144a.206.206,0,0,0-.019-.063c-.007-.02-.02-.069-.031-.1l-.022-.067c-.01-.03-.019-.06-.03-.089-.018-.054-.037-.106-.056-.16s-.039-.106-.06-.159c-.041-.107-.085-.214-.129-.32-.173-.413-.368-.82-.547-1.224a6.751,6.751,0,0,1-.255-.648l-.023.032a1.374,1.374,0,0,0-.1.172,4.264,4.264,0,0,1-.941,2.089l-.947-1.379-.828,1.274a1.041,1.041,0,0,0-.332.59c-.026.084-.051.174-.075.271-.017.064-.032.132-.047.2-.008.035-.016.069-.023.105l-.021.109v.017c-.014.074-.029.15-.042.228s-.029.167-.042.252q-.014.082-.025.165c-.017.106-.031.214-.045.32-.008.062-.017.119-.024.185l-.029.239c.061.2.129.389.2.579a.962.962,0,0,1,.078.328,8.156,8.156,0,0,0,4.482,0,.046.046,0,0,1,0-.012,1.421,1.421,0,0,1-.029-.326h0a8.961,8.961,0,0,1,.119-.913,3.342,3.342,0,0,0,.023-.449V695.6C327.612,695.557,327.61,695.514,327.609,695.471Zm0,0a.826.826,0,0,0-.008-.143c-.008-.048-.007-.09-.013-.135s-.011-.091-.017-.136-.014-.091-.023-.136-.017-.091-.026-.136a.2.2,0,0,0-.01-.045c-.013-.06-.027-.119-.043-.18s-.025-.1-.039-.144a.206.206,0,0,0-.019-.063c-.007-.02-.02-.069-.031-.1l-.022-.067c-.01-.03-.019-.06-.03-.089-.018-.054-.037-.106-.056-.16s-.039-.106-.06-.159c-.041-.107-.085-.214-.129-.32-.173-.413-.368-.82-.547-1.224a6.751,6.751,0,0,1-.255-.648l-.023.032a1.374,1.374,0,0,0-.1.172,4.264,4.264,0,0,1-.941,2.089l-.947-1.379-.828,1.274a1.041,1.041,0,0,0-.332.59c-.026.084-.051.174-.075.271-.017.064-.032.132-.047.2-.008.035-.016.069-.023.105l-.021.109v.017c-.014.074-.029.15-.042.228s-.029.167-.042.252q-.014.082-.025.165c-.017.106-.031.214-.045.32-.008.062-.017.119-.024.185l-.029.239c.061.2.129.389.2.579a.962.962,0,0,1,.078.328,8.156,8.156,0,0,0,4.482,0,.046.046,0,0,1,0-.012,1.421,1.421,0,0,1-.029-.326h0a8.961,8.961,0,0,1,.119-.913,3.342,3.342,0,0,0,.023-.449V695.6C327.612,695.557,327.61,695.514,327.609,695.471Z" transform="translate(-317.147 -681.436)"/><path class="g" d="M306.926,692.64l-.08-.011a2.917,2.917,0,0,1-.358-.072l-.044-.012c-.291-.082-.61-.23-.682-.491a.464.464,0,0,1,.007-.254,2.182,2.182,0,0,1,.162-.411v-.007a.562.562,0,0,1,.03-.054,1.194,1.194,0,0,1,.431-.469l-.143.023-1.213.2-1.88.3s-.334-.067-.789,1.187a.194.194,0,0,1-.016.047c-.11.307-.226.69-.345,1.169-.082.332-.158.658-.227.974-.02.1-.041.19-.06.283a7.6,7.6,0,0,0,.694.716l.039.037a8.145,8.145,0,0,0,1.59,1.126l.023.012a7.862,7.862,0,0,0,1.122.5l.1.036c.022-.221.045-.466.074-.716a.2.2,0,0,1,.01-.075l.029-.239c.007-.061.016-.119.024-.185.014-.106.029-.214.045-.32q.011-.082.025-.165c.013-.085.027-.169.042-.252s.027-.154.042-.228v-.017l.022-.109c.007-.036.014-.07.023-.105.014-.068.03-.136.047-.2.024-.1.049-.187.075-.271a1.02,1.02,0,0,1,.332-.59l.828-1.274.035-.054.016-.024Z" transform="translate(-299.781 -681.661)"/><path class="r" d="M306.239,692.66l-.88,1.351a1.01,1.01,0,0,0-.326.572c-.027.088-.055.185-.081.286a14.273,14.273,0,0,0-.27,1.563.186.186,0,0,1-.01.072c-.041.332-.074.658-.1.945a7.875,7.875,0,0,1-1.122-.5l-.023-.012a8.141,8.141,0,0,1-1.59-1.126l-.039-.037a7.587,7.587,0,0,1-.694-.716c-.029-.032-.056-.066-.084-.1.013-.062.026-.119.041-.186.068-.316.143-.641.226-.972a11.746,11.746,0,0,1,.406-1.337.359.359,0,0,1,.016-.038c.423-1.087.727-1.027.727-1.027l1.985-.32,1.253-.2-.039.023a1.271,1.271,0,0,0-.345.368l-.035.058c-.014.023-.027.048-.042.073a2.114,2.114,0,0,0-.165.418.439.439,0,0,0,.029.341,1.137,1.137,0,0,0,.736.427l.047.012A3.008,3.008,0,0,0,306.239,692.66Z" transform="translate(-299.165 -681.679)"/><path class="g" d="M375.213,692.827l-.049-1.06c.209-1.671-.209-1.775-.209-1.775l-.5-.239h-.013l-2-.968-.078-.038-.024-.011h0l-.26-.127h0l-.165-.08-.308-.149-.1-.05v.414c0,.119.011.259.02.421.022.408.061.955.131,1.6.039.374.09.782.152,1.22.037.259.063.517.08.769a13.537,13.537,0,0,1-.079,2.543l.109-.035a8,8,0,0,0,.864-.346h0a7.934,7.934,0,0,0,1.54-.945l.021-.016a7.973,7.973,0,0,0,.867-.787Z" transform="translate(-361.24 -679.433)"/><path class="r" d="M376.075,692.783l-.049-1.062c.209-1.671-.209-1.775-.209-1.775l-.6-.289h-.012l-2-.972-.092-.044-.018-.008-.147-.072-.195-.094-.384-.186v.169h0v.21c0,.119.011.276.021.454.02.381.056.88.119,1.473.043.407.1.859.167,1.347q.055.39.079.772a13.509,13.509,0,0,1-.074,2.507,8.084,8.084,0,0,0,2.4-1.292l.022-.016a7.975,7.975,0,0,0,.867-.787q.053-.053.1-.107Z" transform="translate(-361.998 -679.389)"/><path class="g" d="M331.7,636.484a2.985,2.985,0,0,1,1.117-.119,3.652,3.652,0,0,1,.854.414,2.21,2.21,0,0,0,.881.233.519.519,0,0,0,.324-.063.5.5,0,0,0,.144-.492,2.825,2.825,0,0,0-.716-1.342,2.63,2.63,0,0,0-.449-.455,2.371,2.371,0,0,0-1.527-.346,3.825,3.825,0,0,0-1.749.449c-.358.205-1.179.852-.894,1.32C329.984,636.572,331.23,636.564,331.7,636.484Z" transform="translate(-324.355 -631.86)"/><path class="p" d="M331.7,635.484a2.986,2.986,0,0,1,1.117-.119,3.659,3.659,0,0,1,.854.414,2.209,2.209,0,0,0,.881.233.519.519,0,0,0,.324-.063.5.5,0,0,0,.144-.492,2.824,2.824,0,0,0-.716-1.342,2.622,2.622,0,0,0-.449-.455,2.371,2.371,0,0,0-1.527-.346,3.826,3.826,0,0,0-1.749.449c-.358.205-1.179.852-.894,1.32C329.984,635.572,331.23,635.564,331.7,635.484Z" transform="translate(-324.355 -630.979)"/></g><path class="g" d="M728.048,522.191s-2.758.19-3.518-.381a7.28,7.28,0,0,0,3.432,1.426Z" transform="translate(-643.198 -462.373)"/><path class="s" d="M262.444,110.125,229.855,83.863a2.039,2.039,0,0,0-1.444-.6h-1.385a17.667,17.667,0,1,0-3.06,3.06V87.71a2.039,2.039,0,0,0,.6,1.444l32.589,26.262a2.029,2.029,0,0,0,2.882,0l2.4-2.4A2.05,2.05,0,0,0,262.444,110.125ZM213.087,83.266a10.87,10.87,0,1,1,7.7-3.183,10.88,10.88,0,0,1-7.7,3.183Z" transform="translate(-177.258 -51.05)"/><path class="d" d="M264.444,108.125,231.855,81.863a2.039,2.039,0,0,0-1.444-.6h-1.385a17.667,17.667,0,1,0-3.06,3.06V85.71a2.039,2.039,0,0,0,.6,1.444l32.589,26.262a2.029,2.029,0,0,0,2.882,0l2.4-2.4a2.05,2.05,0,0,0,.008-2.891ZM215.087,81.267a10.87,10.87,0,1,1,7.7-3.183,10.88,10.88,0,0,1-7.7,3.183Z" transform="translate(-179.019 -49.289)"/><path class="j" d="M280.78,139.929A8.079,8.079,0,0,0,282.4,144.8c.106.142.217.279.333.414.062.073.127.144.192.215q.049.055.1.107a7.961,7.961,0,0,0,.867.787l.021.016a8.083,8.083,0,0,0,2.4,1.292l.109.035c.067.023.136.043.2.062l.027.008c.035.01.069.02.105.029a8.082,8.082,0,0,0,2.128.283c.119,0,.245,0,.366-.008a8.027,8.027,0,0,0,1.883-.308h.012c.113-.033.226-.068.337-.106h.012l.1-.036a7.867,7.867,0,0,0,1.122-.5l.023-.012.119-.066a8.1,8.1,0,0,0,1.473-1.06l.039-.037a7.586,7.586,0,0,0,.694-.716l.025-.03c.02-.023.039-.045.058-.069.053-.062.1-.127.153-.191a8.117,8.117,0,1,0-14.53-4.979Z" transform="translate(-252.419 -118.932)"/><path class="t" d="M295.6,155.9a3.947,3.947,0,0,0,2.568-1.269c.787-1.09,1.321-1.1,1.348-1.1h0c.02-.146.035-.284.044-.413V153.1a.239.239,0,0,1-.111.049c-.158.024-.3-.125-.375-.284a2.218,2.218,0,0,0-.239-.47c-.195-.224-.513-.226-.745-.4a1.024,1.024,0,0,1-.358-.683,1.887,1.887,0,0,1-.014-.3,3.306,3.306,0,0,1,.05-.636,2.62,2.62,0,0,1,.375-1.111c.221-.312.653-.378.868-.673,1.006-1.38,1.724-.942,2.589-1.405a1.388,1.388,0,0,1,.554-.2,1.448,1.448,0,0,1,.937.464,2.678,2.678,0,0,1,.477.477,2.591,2.591,0,0,1,.377,1.449,2.17,2.17,0,0,1-.055.567c-.069.275-.257.257-.462.195a2.481,2.481,0,0,1-.843,3.113v.125a.229.229,0,0,0,0,.027,5.661,5.661,0,0,0,.019.571c.02.011,1.951,1.105,2.169,1.625a2.357,2.357,0,0,0,1.028.9,3.211,3.211,0,0,1,1.313,1.977l-.025.03a7.661,7.661,0,0,1-.694.731l-.039.038a8.1,8.1,0,0,1-1.473,1.074c-.038.023-.078.045-.119.067l-.023.012a7.809,7.809,0,0,1-1.122.5l-.1.037h-.012c-.111.039-.223.074-.337.107h-.012a7.9,7.9,0,0,1-1.883.313c-.119.006-.239.008-.366.008a7.955,7.955,0,0,1-2.122-.276c-.036-.008-.07-.019-.105-.029l-.027-.008c-.068-.019-.137-.041-.2-.063l-.109-.035a8.047,8.047,0,0,1-2.408-1.314l-.022-.016a8.01,8.01,0,0,1-.867-.8q-.051-.053-.1-.11c-.066-.072-.13-.144-.192-.218-.119-.137-.227-.277-.333-.421C295.059,155.659,295.6,155.9,295.6,155.9Z" transform="translate(-264.431 -132.297)"/><path class="u" d="M333.093,187.056l2.568-1.98s-1.72.369-1.671-2.38a.217.217,0,0,1,0-.027,7.031,7.031,0,0,1,.06-.82c.44-3.668-3.081-.44-3.081-.44a5.25,5.25,0,0,1,0,.976v.026a6.821,6.821,0,0,1-.733,2.592C329.279,186.836,333.093,187.056,333.093,187.056Z" transform="translate(-295.836 -161.45)"/><path class="g" d="M337.821,181.874c.436.424.7,1.194,1.357,1.194a2.406,2.406,0,0,0,1.333-.4,7.031,7.031,0,0,1,.06-.82c.44-3.668-3.081-.44-3.081-.44S337.867,181.278,337.821,181.874Z" transform="translate(-302.36 -161.45)"/><circle class="u" cx="2.421" cy="2.421" r="2.421" transform="translate(34.397 16.657)"/><path class="g" d="M327.911,150.924a2.655,2.655,0,0,0-.477-.468A1.448,1.448,0,0,0,326.5,150a1.4,1.4,0,0,0-.554.2c-.865.456-1.583.025-2.589,1.381-.215.29-.646.358-.868.663a2.539,2.539,0,0,0-.375,1.093,2.682,2.682,0,0,0-.037.8,1,1,0,0,0,.358.671c.232.168.55.17.745.39a2.168,2.168,0,0,1,.239.462c.079.155.217.3.375.279a.386.386,0,0,0,.275-.358,2.2,2.2,0,0,0-.03-.51,1.219,1.219,0,0,1,.186-.859c.119-.156.3-.249.417-.408.284-.383.155-1.027.467-1.382a.739.739,0,0,1,.716-.2,3.052,3.052,0,0,1,.716.308,5.315,5.315,0,0,0,.98.378c.284.078.614.264.71-.119A2.523,2.523,0,0,0,327.911,150.924Z" transform="translate(-288.771 -134.947)"/><path class="v" d="M327.911,149.924a2.654,2.654,0,0,0-.477-.468A1.448,1.448,0,0,0,326.5,149a1.4,1.4,0,0,0-.554.2c-.865.456-1.583.025-2.589,1.381-.215.29-.646.358-.868.663a2.539,2.539,0,0,0-.375,1.093,2.682,2.682,0,0,0-.037.8,1,1,0,0,0,.358.671c.232.168.55.169.745.39a2.168,2.168,0,0,1,.239.462c.079.155.217.3.375.279a.386.386,0,0,0,.275-.358,2.2,2.2,0,0,0-.03-.51,1.219,1.219,0,0,1,.186-.859c.119-.156.3-.249.417-.408.284-.383.155-1.027.467-1.382a.739.739,0,0,1,.716-.2,3.053,3.053,0,0,1,.716.308,5.314,5.314,0,0,0,.98.378c.284.078.614.264.71-.119A2.523,2.523,0,0,0,327.911,149.924Z" transform="translate(-288.771 -134.066)"/><path class="g" d="M326.507,214.454l-.048,1.832a8.082,8.082,0,0,0,2.128.283c.119,0,.245,0,.366-.008a8.026,8.026,0,0,0,1.883-.308h.012c.113-.033.226-.068.337-.106h.012l.1-.036a7.87,7.87,0,0,0,1.122-.5l.023-.012.119-.066-.185-2.47.295-1.694-1.614-1.1a2.837,2.837,0,0,1-.3.368,2.029,2.029,0,0,1-.551.408c-1.158.571-2.476-.337-3.131-.9l-.149-.132c-.17-.154-.266-.259-.266-.259l-.807,1.246Z" transform="translate(-292.109 -187.574)"/><path class="w" d="M326.507,215.454l-.048,1.832a8.083,8.083,0,0,0,2.128.283c.119,0,.245,0,.366-.008a8.027,8.027,0,0,0,1.883-.308h.012c.113-.033.226-.068.337-.106h.012l.1-.036a7.87,7.87,0,0,0,1.122-.5l.023-.012.119-.066-.185-2.47.295-1.694-1.614-1.1a2.834,2.834,0,0,1-.3.368,2.029,2.029,0,0,1-.551.408c-1.158.571-2.476-.337-3.131-.9l-.149-.133c-.17-.154-.266-.259-.266-.259l-.807,1.246Z" transform="translate(-292.109 -188.454)"/><path class="x" d="M294.36,207.372c.106.142.217.279.333.414.062.073.126.144.192.215q.049.055.1.107a7.958,7.958,0,0,0,.867.787l.021.016a8.083,8.083,0,0,0,2.4,1.292l.109.035c.067.023.136.043.2.062l.027.008c.035.01.069.02.105.029a8.083,8.083,0,0,0,2.128.283c.119,0,.245,0,.366-.008a11.484,11.484,0,0,0-.026-3.06,4.929,4.929,0,0,0-.295-.528,20.685,20.685,0,0,1-1.613-2.553,1.869,1.869,0,0,0,.049-.269c.063-.47.127-1.331.127-1.331h0c-.026,0-.561.013-1.348,1.085a3.979,3.979,0,0,1-2.568,1.247S295.006,204.964,294.36,207.372Z" transform="translate(-264.378 -181.506)"/><path class="x" d="M361.732,211.964s.088.7.2,1.544h.012l.1-.036a7.87,7.87,0,0,0,1.122-.5l.023-.012.119-.066a8.1,8.1,0,0,0,1.473-1.06l.039-.037a7.6,7.6,0,0,0,.694-.716l.025-.03a3.157,3.157,0,0,0-1.313-1.945,2.345,2.345,0,0,1-1.028-.881c-.221-.513-2.17-1.6-2.17-1.6v.008c0,.092-.031.934-.078,1.78-.03.55-.067,1.1-.11,1.454a1.7,1.7,0,0,1-.062.337C360.633,210.57,361.732,211.964,361.732,211.964Z" transform="translate(-322.861 -184.817)"/></g></svg>