<svg xmlns="http://www.w3.org/2000/svg" width="139.538" height="108.295" viewBox="0 0 139.538 108.295"><defs><style>.a,.f{fill:#efa707;}.a{opacity:0.1;}.b{fill:#e6e6e6;}.c{fill:#f2f2f2;}.d{fill:#fff;}.e{fill:#71737a;stroke:#71737a;stroke-width:0.5px;}.g{fill:#7f8085;}</style></defs><g transform="translate(6.913 11.496)"><path class="a" d="M124.494,42.322c-4.655-6.938-3.119-16.842-.428-24.732.9-2.641,1.925-5.435,1.458-8.309-.571-3.513-3.253-6.145-6.042-7.579a14.924,14.924,0,0,0-15.635,1.1c-3.924,2.841-6.686,7.563-10.686,10.269-6.694,4.527-15.385,2.5-22.836-.952C65.054,9.671,59.28,6.523,54.144,8.78c-3.615,1.589-6.049,5.632-7.329,9.955-.618,2.087-1.051,4.353-2.283,5.986a8.535,8.535,0,0,1-2.7,2.214c-9.083,5.166-20.767,1.937-29.573,7.7C6.317,38.53,2.617,46.084,1.08,54.026S-.077,70.351.535,78.591C.97,84.447,1.659,90.7,4.9,95.307a14.835,14.835,0,0,0,14.311,6.037c5.138-.762,9.744-3.862,13.774-7.562,5.04-4.616,9.678-10.411,15.946-12.164,4.27-1.193,8.806-.349,13.245.025,7.42.623,14.813-.094,22.162-.9,7.034-.775,14.118-1.64,20.78-4.181,4.715-1.8,8.452-5.2,12.891-7.518,2.893-1.514,6.076-1.865,8.8-3.82,3.36-2.409,6.4-6.676,5.411-11.8C131.288,48.554,126.967,46,124.494,42.322Z" transform="translate(127.312 96.799) rotate(-177)"/><g transform="translate(-6.913 34.442)"><path class="b" d="M478.482,682.415a9,9,0,0,1-8.557,2.161c-3.823-1.086-6.418-4.535-8.721-7.774l-6.815-9.579,5.743,1.053c4.13.757,8.363,1.552,11.96,3.72s6.478,6.036,6.25,10.228" transform="translate(-454.389 -655.388)"/><path class="c" d="M457.184,708.921a46.561,46.561,0,0,0-3.8-10.046,16.865,16.865,0,0,0-6.584-6.735,14.716,14.716,0,0,0-4.842-1.575c-.442-.062-.514.625-.074.688a13.979,13.979,0,0,1,7.776,3.824A22.382,22.382,0,0,1,454.7,703.4c.691,1.846,1.248,3.738,1.8,5.629a.356.356,0,0,0,.394.289.348.348,0,0,0,.289-.395Z" transform="translate(-427.752 -668.988)"/><path class="b" d="M431.682,666.62a9,9,0,0,1-7.591-4.5c-1.946-3.466-1.353-7.742-.7-11.663l1.923-11.6,3.329,4.8c2.395,3.45,4.835,7,5.857,11.071s.337,8.847-2.781,11.66" transform="translate(-397.654 -638.857)"/><path class="c" d="M431.7,702.99a46.541,46.541,0,0,0,4.391-9.8,16.86,16.86,0,0,0,.081-9.418,14.7,14.7,0,0,0-2.322-4.531c-.269-.356-.8.081-.537.435a13.981,13.981,0,0,1,2.817,8.2,22.388,22.388,0,0,1-2.3,9.451c-.812,1.8-1.751,3.53-2.691,5.262a.357.357,0,0,0,.076.483.348.348,0,0,0,.483-.076Z" transform="translate(-402.984 -662.313)"/></g><path class="d" d="M326.617,322.019h-.027l-15.761,6.73-21.565,9.208a.7.7,0,0,1-.533,0l-22.248-9.23-16.149-6.7-.025-.011h-.027a.962.962,0,0,0-.961.961v41.737a.962.962,0,0,0,.961.961h76.335a.962.962,0,0,0,.961-.961V322.98A.962.962,0,0,0,326.617,322.019Z" transform="translate(-219.744 -295.429)"/><path class="e" d="M329.755,190.18a.137.137,0,0,1-.078-.025l-37.97-26.443a.689.689,0,0,0-.786,0l-37.7,26.442a.137.137,0,1,1-.158-.225l37.7-26.442a.964.964,0,0,1,1.1,0l37.97,26.443a.137.137,0,0,1-.079.25Z" transform="translate(-222.813 -163.315)"/><path class="b" d="M19.063,33.477,55.036,6.817,91.281,35.374,56.889,55.762,38.217,51.506Z" transform="translate(13.502 -5.675)"/><path class="f" d="M298.455,529.171H280.683a.83.83,0,1,1,0-1.661h17.774a.83.83,0,0,1,0,1.661Z" transform="translate(-245.16 -466.491)"/><path class="f" d="M287.059,507.866h-6.376a.83.83,0,1,1,0-1.66h6.378a.83.83,0,1,1,0,1.66Z" transform="translate(-245.16 -448.755)"/><path class="f" d="M372.691,223.821a1.038,1.038,0,0,1-.394-.077l-22.185-9.205V185.724a.962.962,0,0,1,.961-.961h42.561a.962.962,0,0,1,.961.961v28.835l-.042.018L373.1,223.74A1.047,1.047,0,0,1,372.691,223.821Z" transform="translate(-303.648 -181.17)"/><path class="e" d="M325.388,322.019h-.027l-15.761,6.73-21.565,9.208a.7.7,0,0,1-.533,0l-22.248-9.23-16.148-6.7-.025-.011h-.027a.962.962,0,0,0-.961.961v41.737a.962.962,0,0,0,.961.961h76.335a.962.962,0,0,0,.961-.961V322.98A.962.962,0,0,0,325.388,322.019Zm.686,42.7a.687.687,0,0,1-.686.686H249.053a.687.687,0,0,1-.686-.686V322.98a.688.688,0,0,1,.66-.686l16.227,6.733,22.143,9.188a.978.978,0,0,0,.747,0l21.456-9.163,15.816-6.754a.689.689,0,0,1,.659.686Z" transform="translate(-218.721 -295.429)"/><path class="d" d="M383.769,238.135h-15.1a1.1,1.1,0,1,1,0-2.2h15.1a1.1,1.1,0,0,1,0,2.2Z" transform="translate(-318.179 -223.771)"/><path class="d" d="M375.943,210.274h-7.277a1.1,1.1,0,1,1,0-2.2h7.277a1.1,1.1,0,0,1,0,2.2Z" transform="translate(-318.179 -200.578)"/><path class="d" d="M430.219,303.69H407.154a1.1,1.1,0,1,1,0-2.2h23.065a1.1,1.1,0,0,1,0,2.2Z" transform="translate(-350.218 -278.342)"/><path class="d" d="M430.219,334.009H407.154a1.1,1.1,0,1,1,0-2.2h23.065a1.1,1.1,0,1,1,0,2.2Z" transform="translate(-350.218 -303.581)"/><path class="d" d="M15.449-25.781A14.977,14.977,0,0,0,.469-10.8a14.977,14.977,0,0,0,14.98,14.98A14.977,14.977,0,0,0,30.428-10.8,14.977,14.977,0,0,0,15.449-25.781Z" transform="translate(92.669 67.385)"/><path class="g" d="M23.18-11.768a.727.727,0,0,0-.725-.725H17.14v-5.315a.727.727,0,0,0-.725-.725H14.482a.727.727,0,0,0-.725.725v5.315H8.442a.727.727,0,0,0-.725.725v1.933a.727.727,0,0,0,.725.725h5.315v5.315a.727.727,0,0,0,.725.725h1.933a.727.727,0,0,0,.725-.725V-9.11h5.315a.727.727,0,0,0,.725-.725Zm7.248.966a14.977,14.977,0,0,0-14.98-14.98A14.977,14.977,0,0,0,.469-10.8a14.977,14.977,0,0,0,14.98,14.98A14.977,14.977,0,0,0,30.428-10.8Zm-2.9,0a12.077,12.077,0,0,1-12.08,12.08A12.077,12.077,0,0,1,3.368-10.8a12.077,12.077,0,0,1,12.08-12.08A12.077,12.077,0,0,1,27.529-10.8Z" transform="translate(92.669 67.385)"/></g></svg>