<svg xmlns="http://www.w3.org/2000/svg" width="52.5" height="70" viewBox="0 0 52.5 70">
  <defs>
    <style>
      .cls-1 {
        fill: #1a3d60;
      }
    </style>
  </defs>
  <path id="file-spreadsheet" class="cls-1" d="M24.322-47.854,12.854-59.322A6.562,6.562,0,0,0,8.221-61.25h-27.91a6.584,6.584,0,0,0-6.561,6.575V2.189A6.564,6.564,0,0,0-19.689,8.75H19.689A6.564,6.564,0,0,0,26.25,2.189v-45.4A6.594,6.594,0,0,0,24.322-47.854ZM8.754-56.794a2.151,2.151,0,0,1,1.012.574L21.234-44.752a2.15,2.15,0,0,1,.574,1.012H8.754ZM21.876,2.189a2.194,2.194,0,0,1-2.187,2.187H-19.689a2.194,2.194,0,0,1-2.187-2.187V-54.675a2.2,2.2,0,0,1,2.187-2.2H4.379v14.228A3.265,3.265,0,0,0,7.66-39.375H21.876Zm-39.376-35V-2.187A2.187,2.187,0,0,0-15.313,0H15.312A2.187,2.187,0,0,0,17.5-2.187V-32.812A2.187,2.187,0,0,0,15.312-35H-15.313A2.187,2.187,0,0,0-17.5-32.812ZM13.125-4.375H2.187v-6.562H13.125Zm0-10.937H2.187v-6.562H13.125Zm-26.25-15.312h26.25v4.375h-26.25Zm0,8.75H-2.188v6.562H-13.125Zm0,10.937H-2.188v6.562H-13.125Z" transform="translate(26.25 61.25)"/>
</svg>
