<svg xmlns="http://www.w3.org/2000/svg" width="52.5" height="70.013" viewBox="0 0 52.5 70.013">
  <defs>
    <style>
      .cls-1 {
        fill: #1a3d60;
      }
    </style>
  </defs>
  <path id="file" class="cls-1" d="M24.322-47.865,12.851-59.336a6.563,6.563,0,0,0-4.635-1.928h-27.9a6.585,6.585,0,0,0-6.562,6.576V2.187A6.564,6.564,0,0,0-19.688,8.75H19.687A6.564,6.564,0,0,0,26.25,2.187v-45.4A6.594,6.594,0,0,0,24.322-47.865Zm-3.09,3.1a2.151,2.151,0,0,1,.574,1.012H8.75V-56.807a2.151,2.151,0,0,1,1.012.574ZM19.687,4.375H-19.688a2.194,2.194,0,0,1-2.187-2.187V-54.687a2.194,2.194,0,0,1,2.187-2.187H4.375v14.219a3.273,3.273,0,0,0,3.281,3.281H21.875V2.187A2.194,2.194,0,0,1,19.687,4.375Z" transform="translate(26.25 61.263)"/>
</svg>
